<svg xmlns="http://www.w3.org/2000/svg" id="Ebene_1" data-name="Ebene 1" width="500.9" height="122.2" viewBox="0 0 500.9 122.2"><defs><style>      .cls-1 {        fill: #fff;      }      .cls-1, .cls-2 {        stroke-width: 0px;      }      .cls-2 {        fill: #fff;      }    </style></defs><path class="cls-1" d="M96.6,3.7l-33,42.3L30.5,3.7H5.6l45.5,58.2L6.6,118.8h24.9L121.4,3.7h-24.9ZM135.7,3.7L45.8,118.8h24.9l32-41,32,41h24.9l-44.5-56.9L160.6,3.7h-24.9Z"></path><g><path class="cls-2" d="M325,21.5h-9.6c-1.9,0-2.8,1.1-2.8,1.1l-12.8,15-5.8-14.1s-.5-2-2.2-2h-10.1l10.2,25.6-3,13.8h11l2.8-13.8,22.3-25.6Z"></path><path class="cls-2" d="M364.9,21.5h-9.6c-1.9,0-2.8,1.1-2.8,1.1l-12.8,15-5.8-14.1s-.5-2-2.2-2h-10.1l10.2,25.6-3,13.8h11l2.8-13.8,22.3-25.6Z"></path><path class="cls-2" d="M476.3,52.3c2.1,0,3.9-.4,4.5-3,.6-2.6,3.5-15.5,3.9-17.3.4-1.8-.7-3.1-2.1-3.1h-16c-2.8,0-4.4,2.5-4.7,3.6-.3,1.2-3.6,15.3-3.9,16.6-.3,1.3-.7,3.2,2.1,3.2h16.1ZM498.1,21.5s-6.5,27.1-7.3,30.8c-.8,3.7-2,8.5-8.6,8.5s-22.9,0-30.2,0-6-6.4-5.5-8.5c.5-2.1,4.8-20.4,5.4-23.4.7-3,1.8-7.5,9-7.5s37.1,0,37.1,0"></path><path class="cls-2" d="M263.6,43.6c1.1-5,3.4-14.7,3.4-14.7h-9.8c-4.4,0-5.4,1.2-6.2,2.9-.5.9-5.6,11.7-5.6,11.7,0,0,12,0,18.2,0M279.7,21.5l-8.7,37.7s-.4,1.7-1.4,1.7h-9.9s1.9-8.5,1.9-8.5h-20.5l-3.6,7.3s-.6,1.2-1.7,1.2h-9.8s9.6-20.3,13.9-28.9c1.9-3.8,4.2-7.2,8.2-8.9,1.9-.9,4-1.5,6.2-1.5,6.4,0,25.4,0,25.4,0"></path><path class="cls-2" d="M388.9,43.6c1.1-5,3.4-14.7,3.4-14.7h-9.8c-4.4,0-5.4,1.2-6.2,2.9-.5.9-5.6,11.7-5.6,11.7,0,0,12,0,18.2,0M405,21.5l-8.7,37.7s-.4,1.7-1.4,1.7h-9.9s1.9-8.5,1.9-8.5h-20.5l-3.6,7.3s-.6,1.2-1.7,1.2h-9.8s9.6-20.3,13.9-28.9c1.9-3.8,4.2-7.2,8.2-8.9,1.9-.9,4-1.5,6.2-1.5,6.4,0,25.4,0,25.4,0"></path><path class="cls-2" d="M414.8,60.9l7.3-31.9s-7.8,0-11.4,0c-4,0-3.6-1.6-3.3-3,.3-1.4,1.1-4.4,1.1-4.4h41.6s-.7,2.8-1.2,4.7c-.4,1.9-1.3,2.7-2.9,2.7h-12.9s-6.2,27.1-6.7,29.2c-.5,2.1-1.6,2.8-3.4,2.8h-8.2Z"></path><path class="cls-2" d="M172.7,60.9l4.2-8.5s22.6,0,31.7,0c1.6,0,2.7-.7,3.3-2.2.9-2,3.3-6.7,3.3-6.7,0,0-20.3,0-28.9,0-3.7,0-4.3-1.8-3-4.5,1.3-2.7,5.4-11,6.4-12.9,1-2,2.9-4.6,6.5-4.5,13.6-.1,26.3,0,39.9,0-2.7,5.4-3.2,7.5-7.6,7.5-9.4,0-19.8,0-29.1,0-1.3,0-1.9,1.2-1.9,1.2l-1.9,3.7s-.7,1.6.7,1.6c7.8,0,17,0,24.8,0s1.1,0,1.7,0c4.4,0,5,2,3.3,6.1-1.7,4-3.8,7.9-5.6,11.8-3.9,8.3-3,7.4-11.3,7.4-10.4,0-36.5,0-36.5,0"></path></g><path class="cls-2" d="M450.7,91.7h2.3l2.4-10.4,2.1,7.9h1.3l5.8-7.9-2.4,10.4h2.3l3.3-14.5h-2.4l-6.5,8.8-2.4-8.8h-2.4l-3.3,14.5ZM440.3,91.7h2.3l1.2-5.2,7.2-9.3h-2.5l-5.4,7.3-2-7.3h-2.5l2.9,9.3-1.2,5.2ZM431.8,91.7h1.9l1.7-7.3h-4.7l-.4,1.7h2.9l-.4,1.5c-1.4,1.4-2.9,2.1-4.3,2.1s-1-.1-1.4-.3-.8-.5-1.1-.9c-.3-.4-.5-.8-.6-1.3-.1-.5-.2-1-.2-1.6,0-.8.2-1.6.5-2.4.3-.8.7-1.5,1.2-2.1.5-.6,1.1-1.1,1.8-1.5.7-.4,1.4-.5,2.1-.5s1.5.2,2,.6c.6.4.9,1,1.1,1.8l2-1.3c-.3-1-.8-1.7-1.5-2.3-.8-.6-1.8-.9-3.1-.9s-2.1.2-3.1.7c-1,.5-1.9,1.1-2.7,1.9-.8.8-1.4,1.7-1.9,2.8-.5,1-.7,2.1-.7,3.3,0,.8,0,1.6.3,2.3.2.7.6,1.4,1,1.9.4.5,1,1,1.6,1.3.6.3,1.3.5,2.1.5,1.5,0,2.9-.6,4.4-1.9l-.4,1.8ZM403,91.7h9.5l.5-2h-7.2l1-4.4h6.1l.4-1.9h-6l.9-4.1h7l.5-2h-9.3l-3.3,14.5ZM395.9,91.6c.6-.1,1.2-.4,1.8-.7.6-.3,1.1-.6,1.6-1.1.5-.4.9-.9,1.2-1.4l-1.7-1.1c-.3.4-.6.8-.9,1.1-.3.3-.7.5-1.1.7-.4.2-.7.3-1.1.4-.4,0-.7.1-1.1.1-.5,0-1-.1-1.4-.3-.4-.2-.8-.5-1-.9-.3-.4-.5-.8-.6-1.3-.1-.5-.2-1-.2-1.6,0-.7.2-1.4.4-2.2.3-.7.7-1.4,1.2-2,.5-.6,1.1-1.1,1.8-1.5.7-.4,1.4-.6,2.3-.6s.7,0,1,.1c.3,0,.6.2.9.4.3.2.5.4.7.7.2.3.3.7.4,1.1l2.1-1.2c-.2-.9-.7-1.7-1.5-2.3-.8-.6-1.8-.9-3-.9s-2.3.3-3.4.8c-1,.5-1.9,1.2-2.7,2-.8.8-1.4,1.7-1.8,2.8-.4,1-.7,2-.7,3,0,.8,0,1.5.3,2.3.2.7.5,1.4,1,2,.4.6,1,1,1.6,1.4.6.3,1.4.5,2.2.5s1.1,0,1.7-.2M372.2,91.7h2.3l2.3-10.2,5.3,10.2h1.9l3.3-14.5h-2.3l-2.4,10.4-5.3-10.4h-1.8l-3.3,14.5ZM361.9,86l3.7-6.2.7,6.2h-4.4ZM356.5,91.7h2.4l2.3-3.9h5.2l.5,3.9h2.4l-2.1-14.5h-2l-8.7,14.5ZM339.6,91.7h2.3l2.4-10.4,2.1,7.9h1.3l5.8-7.9-2.4,10.4h2.3l3.3-14.5h-2.4l-6.5,8.8-2.4-8.8h-2.4l-3.3,14.5ZM329.3,84.6l1.3-5.4h3.6c.5,0,.8.2,1.1.6.3.4.4.9.4,1.5,0,.4,0,.8-.2,1.2-.1.4-.3.7-.6,1.1-.2.3-.5.5-.9.7-.3.2-.7.3-1,.3h-3.7ZM327.7,91.7l1.1-5h3l1.8,5h2.6l-1.9-5.5c.5-.2,1-.4,1.5-.8.4-.3.8-.7,1.2-1.2.3-.5.6-.9.8-1.5.2-.5.3-1.1.3-1.6,0-.5,0-1-.2-1.5-.1-.5-.4-.9-.6-1.3-.3-.4-.6-.7-1.1-.9-.4-.2-.9-.3-1.4-.3h-6l-3.3,14.5h2.3ZM314.1,89.4c-.4-.2-.7-.5-1-.9-.3-.4-.5-.8-.6-1.3-.1-.5-.2-1-.2-1.6,0-.7.2-1.5.5-2.3.3-.8.7-1.5,1.2-2.1.5-.6,1.1-1.1,1.8-1.5.7-.4,1.4-.6,2.2-.6s1,.1,1.4.3c.4.2.7.5,1,.9.3.4.5.8.6,1.3.1.5.2,1,.2,1.6,0,.7-.2,1.5-.5,2.3-.3.8-.7,1.5-1.2,2.1-.5.6-1.1,1.1-1.8,1.5-.7.4-1.4.6-2.2.6s-1-.1-1.5-.3M318.3,91c1-.5,1.9-1.1,2.7-1.9.8-.8,1.4-1.7,1.9-2.8.5-1,.7-2.1.7-3.2,0-.8,0-1.5-.3-2.3s-.5-1.4-1-1.9c-.4-.6-1-1-1.6-1.3-.6-.3-1.4-.5-2.2-.5s-2.1.2-3.2.7-1.9,1.1-2.7,2c-.8.8-1.4,1.7-1.9,2.8-.5,1-.7,2.1-.8,3.2,0,.8,0,1.5.3,2.3.2.7.5,1.4,1,1.9s1,1,1.6,1.3c.6.3,1.4.5,2.2.5s2.1-.2,3.2-.7M297.1,91.7h2.3l1.4-6.2h5.7l.4-1.9h-5.7l1-4.3h6.9l.5-2h-9.2l-3.3,14.5ZM286.8,84.6l1.3-5.4h3.6c.5,0,.8.2,1.1.6.3.4.4.9.4,1.5,0,.4,0,.8-.2,1.2-.1.4-.3.7-.6,1.1-.2.3-.5.5-.9.7-.3.2-.7.3-1,.3h-3.7ZM285.2,91.7l1.1-5h3l1.8,5h2.6l-1.9-5.5c.5-.2,1-.4,1.5-.8.4-.3.8-.7,1.2-1.2.3-.5.6-.9.8-1.5.2-.5.3-1.1.3-1.6,0-.5,0-1-.2-1.5-.1-.5-.4-.9-.6-1.3-.3-.4-.6-.7-1.1-.9-.4-.2-.9-.3-1.4-.3h-6l-3.3,14.5h2.3ZM269.8,91.7h9.5l.5-2h-7.2l1-4.4h6.1l.4-1.9h-6l.9-4.1h7l.5-2h-9.3l-3.3,14.5ZM260.3,84.6l1.3-5.4h3.3c.5,0,.9.2,1.2.6.3.4.4.9.4,1.5,0,.4,0,.9-.2,1.3-.1.4-.3.8-.6,1.1-.2.3-.5.5-.9.7-.3.2-.7.3-1,.3h-3.5ZM256.4,91.7h2.3l1.1-5h3.6c.7,0,1.4-.2,2.1-.5.7-.3,1.2-.8,1.7-1.3.5-.5.9-1.1,1.2-1.8.3-.7.5-1.3.5-2,0-.5,0-1-.2-1.5-.1-.5-.4-.9-.7-1.3-.3-.4-.6-.7-1.1-.9-.4-.2-.9-.3-1.4-.3h-5.8l-3.3,14.5ZM240.6,86l3.7-6.2.7,6.2h-4.4ZM235.1,91.7h2.4l2.3-3.9h5.2l.5,3.9h2.4l-2.1-14.5h-2l-8.7,14.5ZM218.2,91.7h2.3l2.4-10.4,2.1,7.9h1.3l5.8-7.9-2.4,10.4h2.3l3.3-14.5h-2.4l-6.5,8.8-2.4-8.8h-2.4l-3.3,14.5ZM200,91.7h2.3l2.4-10.4,2.1,7.9h1.3l5.8-7.9-2.4,10.4h2.3l3.3-14.5h-2.4l-6.5,8.8-2.4-8.8h-2.4l-3.3,14.5Z"></path></svg>